<svg xmlns="http://www.w3.org/2000/svg" xmlns:xlink="http://www.w3.org/1999/xlink" width="209" zoomAndPan="magnify" viewBox="0 0 156.75 98.999996" height="132" preserveAspectRatio="xMidYMid meet" version="1.2"><defs><clipPath id="a0d2fcac52"><path d="M 0 0.078125 L 156.5 0.078125 L 156.5 98.921875 L 0 98.921875 Z M 0 0.078125 "/></clipPath><clipPath id="7c65c3a981"><path d="M 44 16 L 78 16 L 78 94.128906 L 44 94.128906 Z M 44 16 "/></clipPath><clipPath id="cbaa5abb67"><path d="M 42 5.019531 L 79 5.019531 L 79 31 L 42 31 Z M 42 5.019531 "/></clipPath><clipPath id="09ec4a00ca"><path d="M 39.3125 91 L 110 91 L 110 94.128906 L 39.3125 94.128906 Z M 39.3125 91 "/></clipPath></defs><g id="7146ed6693"><g clip-rule="nonzero" clip-path="url(#a0d2fcac52)"><path style=" stroke:none;fill-rule:nonzero;fill:#ffffff;fill-opacity:1;" d="M 0 0.078125 L 156.5 0.078125 L 156.5 98.921875 L 0 98.921875 Z M 0 0.078125 "/><path style=" stroke:none;fill-rule:nonzero;fill:#ffffff;fill-opacity:1;" d="M 0 0.078125 L 156.5 0.078125 L 156.5 98.921875 L 0 98.921875 Z M 0 0.078125 "/></g><path style=" stroke:none;fill-rule:evenodd;fill:#004d6c;fill-opacity:1;" d="M 92.585938 67.140625 L 99.6875 92.867188 L 80.484375 92.867188 L 87.589844 67.140625 Z M 92.585938 67.140625 "/><path style=" stroke:none;fill-rule:evenodd;fill:#0076a4;fill-opacity:1;" d="M 87.589844 67.144531 C 88.097656 67.652344 88.628906 68.136719 89.183594 68.59375 C 89.738281 69.050781 90.316406 69.476562 90.914062 69.878906 C 91.507812 70.277344 92.125 70.648438 92.757812 70.988281 C 93.390625 71.328125 94.039062 71.636719 94.703125 71.910156 C 95.367188 72.1875 96.042969 72.429688 96.730469 72.640625 C 97.417969 72.847656 98.117188 73.023438 98.820312 73.164062 C 99.523438 73.304688 100.234375 73.410156 100.949219 73.480469 C 101.664062 73.550781 102.382812 73.585938 103.101562 73.585938 C 103.820312 73.585938 104.535156 73.550781 105.25 73.480469 C 105.964844 73.410156 106.675781 73.304688 107.378906 73.164062 C 108.085938 73.023438 108.78125 72.847656 109.46875 72.640625 C 110.15625 72.429688 110.832031 72.1875 111.496094 71.910156 C 112.160156 71.636719 112.808594 71.328125 113.441406 70.988281 C 114.074219 70.648438 114.691406 70.277344 115.289062 69.878906 C 115.886719 69.476562 116.460938 69.050781 117.015625 68.59375 C 117.570312 68.136719 118.105469 67.652344 118.613281 67.144531 L 87.589844 36.042969 C 87.082031 36.550781 86.597656 37.082031 86.144531 37.640625 C 85.6875 38.199219 85.261719 38.773438 84.859375 39.375 C 84.460938 39.972656 84.09375 40.589844 83.753906 41.226562 C 83.414062 41.859375 83.109375 42.511719 82.835938 43.175781 C 82.558594 43.839844 82.316406 44.519531 82.109375 45.207031 C 81.898438 45.898438 81.726562 46.59375 81.585938 47.300781 C 81.445312 48.007812 81.339844 48.71875 81.269531 49.4375 C 81.199219 50.152344 81.164062 50.871094 81.164062 51.589844 C 81.164062 52.3125 81.199219 53.03125 81.269531 53.746094 C 81.339844 54.464844 81.445312 55.175781 81.585938 55.882812 C 81.726562 56.589844 81.898438 57.285156 82.109375 57.976562 C 82.316406 58.664062 82.558594 59.34375 82.835938 60.007812 C 83.109375 60.671875 83.414062 61.324219 83.753906 61.957031 C 84.09375 62.59375 84.460938 63.210938 84.859375 63.808594 C 85.261719 64.410156 85.6875 64.984375 86.144531 65.542969 C 86.597656 66.101562 87.082031 66.632812 87.589844 67.140625 Z M 87.589844 67.144531 "/><path style=" stroke:none;fill-rule:nonzero;fill:#0076a4;fill-opacity:1;" d="M 64.523438 39.566406 C 64.648438 39.46875 64.792969 39.398438 64.945312 39.359375 C 65.101562 39.320312 65.257812 39.308594 65.417969 39.332031 C 65.578125 39.355469 65.726562 39.40625 65.863281 39.488281 C 66 39.570312 66.117188 39.671875 66.214844 39.800781 C 66.3125 39.929688 66.378906 40.070312 66.421875 40.226562 C 66.460938 40.382812 66.46875 40.539062 66.449219 40.699219 C 66.425781 40.859375 66.375 41.007812 66.292969 41.144531 C 66.210938 41.285156 66.109375 41.402344 65.980469 41.5 L 62.597656 44.0625 L 67.695312 47.925781 C 67.820312 48.023438 67.925781 48.140625 68.007812 48.28125 C 68.089844 48.417969 68.140625 48.566406 68.164062 48.726562 C 68.1875 48.886719 68.175781 49.042969 68.136719 49.199219 C 68.097656 49.355469 68.027344 49.496094 67.929688 49.625 C 67.835938 49.753906 67.71875 49.859375 67.578125 49.941406 C 67.441406 50.023438 67.292969 50.074219 67.132812 50.097656 C 66.972656 50.121094 66.816406 50.109375 66.660156 50.070312 C 66.503906 50.03125 66.363281 49.960938 66.234375 49.863281 L 60.589844 45.582031 L 54.960938 49.851562 C 54.832031 49.945312 54.691406 50.015625 54.535156 50.054688 C 54.378906 50.097656 54.222656 50.105469 54.0625 50.085938 C 53.90625 50.0625 53.757812 50.011719 53.617188 49.929688 C 53.480469 49.847656 53.363281 49.742188 53.265625 49.613281 C 53.167969 49.484375 53.101562 49.34375 53.058594 49.1875 C 53.019531 49.03125 53.011719 48.875 53.03125 48.714844 C 53.054688 48.554688 53.105469 48.40625 53.1875 48.269531 C 53.269531 48.128906 53.375 48.011719 53.503906 47.914062 L 58.582031 44.0625 L 55.195312 41.5 C 55.070312 41.402344 54.964844 41.28125 54.886719 41.144531 C 54.808594 41.003906 54.757812 40.855469 54.734375 40.699219 C 54.714844 40.539062 54.722656 40.382812 54.761719 40.230469 C 54.804688 40.074219 54.871094 39.933594 54.96875 39.804688 C 55.0625 39.679688 55.179688 39.574219 55.316406 39.492188 C 55.453125 39.410156 55.601562 39.359375 55.761719 39.335938 C 55.917969 39.3125 56.074219 39.320312 56.230469 39.359375 C 56.382812 39.398438 56.527344 39.464844 56.652344 39.558594 L 60.589844 42.542969 Z M 67.21875 52.769531 C 67.34375 52.667969 67.484375 52.59375 67.640625 52.550781 C 67.796875 52.507812 67.953125 52.496094 68.113281 52.515625 C 68.273438 52.535156 68.421875 52.582031 68.5625 52.664062 C 68.703125 52.742188 68.824219 52.847656 68.921875 52.976562 C 69.019531 53.101562 69.089844 53.246094 69.132812 53.402344 C 69.175781 53.558594 69.1875 53.714844 69.164062 53.875 C 69.144531 54.035156 69.089844 54.1875 69.011719 54.328125 C 68.929688 54.464844 68.824219 54.585938 68.695312 54.683594 L 62.574219 59.402344 L 71.464844 66.25 C 71.589844 66.347656 71.691406 66.46875 71.773438 66.605469 C 71.851562 66.746094 71.902344 66.894531 71.921875 67.054688 C 71.941406 67.214844 71.933594 67.371094 71.890625 67.527344 C 71.847656 67.679688 71.777344 67.824219 71.679688 67.949219 C 71.582031 68.078125 71.464844 68.179688 71.324219 68.261719 C 71.1875 68.339844 71.039062 68.390625 70.878906 68.410156 C 70.71875 68.433594 70.5625 68.421875 70.410156 68.378906 C 70.253906 68.335938 70.113281 68.269531 69.984375 68.167969 L 60.589844 60.929688 L 51.253906 68.121094 C 51.128906 68.21875 50.988281 68.289062 50.832031 68.332031 C 50.675781 68.371094 50.519531 68.382812 50.363281 68.363281 C 50.203125 68.339844 50.054688 68.289062 49.914062 68.210938 C 49.777344 68.128906 49.660156 68.027344 49.5625 67.898438 C 49.464844 67.773438 49.394531 67.632812 49.351562 67.476562 C 49.308594 67.324219 49.296875 67.164062 49.320312 67.007812 C 49.339844 66.847656 49.390625 66.699219 49.46875 66.558594 C 49.546875 66.417969 49.648438 66.300781 49.777344 66.203125 L 58.609375 59.402344 L 52.507812 54.703125 C 52.375 54.605469 52.269531 54.488281 52.183594 54.347656 C 52.101562 54.207031 52.050781 54.058594 52.027344 53.894531 C 52.003906 53.734375 52.011719 53.574219 52.054688 53.417969 C 52.09375 53.261719 52.164062 53.117188 52.265625 52.988281 C 52.363281 52.859375 52.484375 52.753906 52.625 52.675781 C 52.765625 52.59375 52.917969 52.542969 53.078125 52.523438 C 53.238281 52.503906 53.398438 52.519531 53.554688 52.5625 C 53.710938 52.609375 53.851562 52.679688 53.976562 52.78125 L 60.589844 57.875 Z M 48.941406 73.457031 C 48.796875 73.386719 48.671875 73.292969 48.5625 73.171875 C 48.453125 73.054688 48.375 72.917969 48.320312 72.765625 C 48.265625 72.617188 48.242188 72.460938 48.25 72.296875 C 48.257812 72.136719 48.296875 71.984375 48.367188 71.839844 C 48.433594 71.695312 48.527344 71.566406 48.648438 71.460938 C 48.765625 71.351562 48.902344 71.269531 49.050781 71.214844 C 49.203125 71.160156 49.359375 71.136719 49.519531 71.144531 C 49.679688 71.152344 49.832031 71.191406 49.976562 71.261719 L 60.589844 76.273438 L 71.257812 71.234375 C 71.402344 71.167969 71.554688 71.128906 71.714844 71.121094 C 71.875 71.113281 72.03125 71.136719 72.179688 71.191406 C 72.332031 71.242188 72.46875 71.324219 72.585938 71.433594 C 72.703125 71.539062 72.796875 71.667969 72.867188 71.8125 C 72.9375 71.957031 72.972656 72.109375 72.984375 72.269531 C 72.992188 72.429688 72.96875 72.585938 72.914062 72.738281 C 72.859375 72.890625 72.777344 73.023438 72.671875 73.144531 C 72.5625 73.265625 72.4375 73.359375 72.292969 73.425781 L 63.421875 77.621094 L 74.691406 82.945312 C 74.839844 83.011719 74.964844 83.105469 75.074219 83.226562 C 75.179688 83.34375 75.261719 83.480469 75.316406 83.628906 C 75.371094 83.78125 75.394531 83.9375 75.386719 84.097656 C 75.378906 84.257812 75.339844 84.414062 75.273438 84.558594 C 75.203125 84.703125 75.109375 84.832031 74.992188 84.9375 C 74.875 85.046875 74.738281 85.128906 74.585938 85.183594 C 74.4375 85.238281 74.28125 85.261719 74.121094 85.253906 C 73.960938 85.246094 73.808594 85.207031 73.664062 85.140625 L 60.589844 78.957031 L 47.613281 85.09375 C 47.46875 85.160156 47.316406 85.199219 47.15625 85.203125 C 46.996094 85.210938 46.839844 85.1875 46.691406 85.132812 C 46.542969 85.078125 46.410156 84.996094 46.289062 84.886719 C 46.171875 84.78125 46.082031 84.652344 46.011719 84.507812 C 45.945312 84.363281 45.90625 84.210938 45.898438 84.050781 C 45.890625 83.894531 45.914062 83.738281 45.964844 83.585938 C 46.019531 83.4375 46.101562 83.300781 46.207031 83.183594 C 46.3125 83.0625 46.4375 82.96875 46.582031 82.898438 L 57.753906 77.621094 Z M 48.941406 73.457031 "/><path style=" stroke:none;fill-rule:evenodd;fill:#004d6c;fill-opacity:1;" d="M 99.011719 55.691406 C 107.578125 64.277344 116.351562 69.40625 118.613281 67.144531 C 120.871094 64.878906 115.753906 56.085938 107.1875 47.492188 C 98.625 38.90625 89.847656 33.78125 87.589844 36.042969 C 85.332031 38.304688 90.445312 47.105469 99.011719 55.691406 Z M 99.011719 55.691406 "/><path style=" stroke:none;fill-rule:nonzero;fill:#0076a4;fill-opacity:1;" d="M 97.75 47.828125 C 97.597656 47.882812 97.441406 47.90625 97.28125 47.898438 C 97.121094 47.890625 96.964844 47.851562 96.820312 47.78125 C 96.675781 47.710938 96.550781 47.617188 96.441406 47.496094 C 96.332031 47.378906 96.253906 47.242188 96.199219 47.089844 C 96.144531 46.9375 96.125 46.78125 96.132812 46.617188 C 96.140625 46.457031 96.179688 46.304688 96.25 46.160156 C 96.320312 46.011719 96.414062 45.886719 96.535156 45.777344 C 96.65625 45.671875 96.792969 45.589844 96.945312 45.539062 L 113.382812 39.730469 C 113.535156 39.679688 113.691406 39.65625 113.851562 39.664062 C 114.011719 39.671875 114.164062 39.710938 114.308594 39.78125 C 114.457031 39.851562 114.582031 39.945312 114.6875 40.066406 C 114.796875 40.1875 114.875 40.324219 114.929688 40.476562 C 115.023438 40.746094 115.023438 41.011719 114.929688 41.28125 L 109.136719 57.761719 C 109.085938 57.914062 109.007812 58.050781 108.898438 58.171875 C 108.792969 58.292969 108.667969 58.390625 108.523438 58.460938 C 108.375 58.53125 108.222656 58.570312 108.0625 58.582031 C 107.902344 58.589844 107.746094 58.570312 107.59375 58.515625 C 107.441406 58.460938 107.304688 58.378906 107.183594 58.273438 C 107.066406 58.164062 106.96875 58.039062 106.902344 57.890625 C 106.832031 57.746094 106.792969 57.59375 106.785156 57.429688 C 106.777344 57.269531 106.800781 57.113281 106.855469 56.960938 L 111.808594 42.863281 Z M 97.75 47.828125 "/><path style=" stroke:none;fill-rule:nonzero;fill:#0076a4;fill-opacity:1;" d="M 106.054688 33.128906 C 105.941406 33.242188 105.808594 33.332031 105.660156 33.390625 C 105.511719 33.453125 105.355469 33.484375 105.195312 33.484375 C 105.035156 33.484375 104.878906 33.453125 104.730469 33.390625 C 104.582031 33.328125 104.453125 33.242188 104.339844 33.125 C 104.226562 33.011719 104.136719 32.878906 104.074219 32.730469 C 104.015625 32.582031 103.984375 32.425781 103.984375 32.265625 C 103.984375 32.105469 104.015625 31.949219 104.078125 31.800781 C 104.140625 31.652344 104.226562 31.519531 104.34375 31.40625 C 104.960938 30.785156 105.636719 30.230469 106.367188 29.738281 C 107.09375 29.25 107.867188 28.839844 108.675781 28.503906 C 109.488281 28.164062 110.320312 27.910156 111.183594 27.742188 C 112.042969 27.570312 112.910156 27.484375 113.789062 27.484375 C 114.664062 27.484375 115.535156 27.570312 116.394531 27.742188 C 117.253906 27.910156 118.089844 28.164062 118.902344 28.503906 C 119.710938 28.839844 120.480469 29.25 121.210938 29.738281 C 121.941406 30.230469 122.613281 30.785156 123.234375 31.40625 C 123.855469 32.027344 124.410156 32.703125 124.898438 33.433594 C 125.382812 34.167969 125.796875 34.9375 126.132812 35.75 C 126.46875 36.5625 126.71875 37.402344 126.890625 38.261719 C 127.0625 39.125 127.148438 39.996094 127.148438 40.875 C 127.148438 41.753906 127.0625 42.625 126.890625 43.488281 C 126.71875 44.351562 126.46875 45.1875 126.132812 46 C 125.796875 46.8125 125.382812 47.585938 124.898438 48.316406 C 124.410156 49.046875 123.855469 49.726562 123.234375 50.347656 C 123.125 50.46875 122.992188 50.5625 122.84375 50.628906 C 122.691406 50.695312 122.535156 50.730469 122.371094 50.734375 C 122.207031 50.738281 122.046875 50.707031 121.894531 50.644531 C 121.742188 50.585938 121.605469 50.496094 121.492188 50.378906 C 121.375 50.261719 121.285156 50.125 121.222656 49.972656 C 121.164062 49.820312 121.132812 49.660156 121.136719 49.496094 C 121.140625 49.332031 121.175781 49.175781 121.242188 49.023438 C 121.308594 48.875 121.402344 48.742188 121.523438 48.628906 C 122.03125 48.121094 122.484375 47.566406 122.882812 46.96875 C 123.28125 46.371094 123.617188 45.738281 123.890625 45.074219 C 124.167969 44.40625 124.375 43.722656 124.515625 43.015625 C 124.65625 42.308594 124.722656 41.597656 124.722656 40.875 C 124.722656 40.15625 124.652344 39.445312 124.515625 38.738281 C 124.375 38.03125 124.167969 37.347656 123.890625 36.683594 C 123.617188 36.015625 123.28125 35.386719 122.878906 34.785156 C 122.480469 34.1875 122.027344 33.632812 121.519531 33.125 C 121.011719 32.617188 120.460938 32.164062 119.863281 31.761719 C 119.265625 31.363281 118.636719 31.023438 117.972656 30.75 C 117.308594 30.472656 116.625 30.265625 115.921875 30.125 C 115.214844 29.984375 114.503906 29.914062 113.789062 29.914062 C 113.070312 29.914062 112.359375 29.984375 111.652344 30.125 C 110.949219 30.265625 110.265625 30.476562 109.601562 30.75 C 108.9375 31.027344 108.308594 31.363281 107.710938 31.765625 C 107.113281 32.164062 106.5625 32.617188 106.054688 33.128906 Z M 109.082031 36.160156 C 108.96875 36.265625 108.839844 36.347656 108.691406 36.40625 C 108.542969 36.460938 108.394531 36.488281 108.234375 36.484375 C 108.078125 36.480469 107.929688 36.449219 107.785156 36.386719 C 107.640625 36.328125 107.511719 36.238281 107.402344 36.128906 C 107.289062 36.019531 107.203125 35.890625 107.140625 35.746094 C 107.082031 35.601562 107.050781 35.449219 107.046875 35.292969 C 107.042969 35.132812 107.070312 34.980469 107.125 34.835938 C 107.183594 34.6875 107.261719 34.558594 107.371094 34.441406 C 107.792969 34.019531 108.25 33.640625 108.746094 33.3125 C 109.242188 32.980469 109.765625 32.699219 110.316406 32.46875 C 110.867188 32.242188 111.433594 32.070312 112.019531 31.953125 C 112.605469 31.835938 113.195312 31.777344 113.789062 31.777344 C 114.386719 31.777344 114.976562 31.835938 115.5625 31.953125 C 116.144531 32.070312 116.714844 32.242188 117.265625 32.472656 C 117.816406 32.699219 118.339844 32.980469 118.832031 33.3125 C 119.328125 33.644531 119.789062 34.023438 120.210938 34.445312 C 120.628906 34.867188 121.007812 35.328125 121.339844 35.824219 C 121.667969 36.320312 121.949219 36.84375 122.175781 37.398438 C 122.40625 37.949219 122.578125 38.519531 122.691406 39.105469 C 122.808594 39.691406 122.867188 40.28125 122.867188 40.878906 C 122.867188 41.476562 122.808594 42.070312 122.691406 42.65625 C 122.574219 43.242188 122.402344 43.8125 122.175781 44.363281 C 121.945312 44.914062 121.667969 45.441406 121.335938 45.9375 C 121.003906 46.433594 120.628906 46.894531 120.207031 47.316406 C 120.09375 47.429688 119.960938 47.519531 119.8125 47.582031 C 119.664062 47.644531 119.507812 47.679688 119.347656 47.679688 C 119.183594 47.679688 119.027344 47.648438 118.878906 47.585938 C 118.730469 47.523438 118.597656 47.4375 118.484375 47.320312 C 118.367188 47.207031 118.28125 47.074219 118.21875 46.921875 C 118.15625 46.773438 118.128906 46.617188 118.128906 46.453125 C 118.128906 46.292969 118.160156 46.136719 118.226562 45.988281 C 118.289062 45.839844 118.378906 45.707031 118.492188 45.59375 C 118.800781 45.285156 119.078125 44.945312 119.320312 44.582031 C 119.5625 44.21875 119.769531 43.832031 119.933594 43.429688 C 120.101562 43.023438 120.226562 42.605469 120.3125 42.179688 C 120.398438 41.75 120.441406 41.316406 120.441406 40.875 C 120.441406 40.4375 120.398438 40.003906 120.3125 39.574219 C 120.226562 39.148438 120.101562 38.730469 119.933594 38.324219 C 119.765625 37.921875 119.5625 37.535156 119.320312 37.171875 C 119.074219 36.808594 118.800781 36.472656 118.492188 36.160156 C 118.183594 35.851562 117.847656 35.574219 117.484375 35.332031 C 117.121094 35.089844 116.738281 34.882812 116.332031 34.714844 C 115.929688 34.546875 115.515625 34.421875 115.085938 34.335938 C 114.65625 34.25 114.226562 34.207031 113.789062 34.207031 C 113.351562 34.207031 112.917969 34.25 112.488281 34.335938 C 112.0625 34.421875 111.644531 34.546875 111.242188 34.714844 C 110.839844 34.882812 110.457031 35.085938 110.09375 35.332031 C 109.730469 35.574219 109.394531 35.851562 109.082031 36.160156 Z M 109.082031 36.160156 "/><path style=" stroke:none;fill-rule:evenodd;fill:#f54756;fill-opacity:1;" d="M 116.324219 38.335938 C 116.660156 38.671875 116.917969 39.058594 117.101562 39.5 C 117.285156 39.941406 117.375 40.398438 117.375 40.875 C 117.375 41.351562 117.285156 41.8125 117.101562 42.253906 C 116.917969 42.691406 116.660156 43.082031 116.324219 43.417969 C 115.988281 43.753906 115.601562 44.015625 115.160156 44.199219 C 114.722656 44.378906 114.265625 44.472656 113.789062 44.472656 C 113.3125 44.472656 112.855469 44.378906 112.417969 44.199219 C 111.976562 44.015625 111.589844 43.753906 111.253906 43.417969 C 110.917969 43.082031 110.65625 42.691406 110.476562 42.25 C 110.292969 41.8125 110.203125 41.351562 110.203125 40.875 C 110.203125 40.398438 110.292969 39.941406 110.476562 39.5 C 110.65625 39.058594 110.917969 38.671875 111.253906 38.335938 C 111.589844 37.996094 111.976562 37.738281 112.417969 37.554688 C 112.855469 37.375 113.3125 37.28125 113.789062 37.28125 C 114.265625 37.28125 114.722656 37.375 115.160156 37.554688 C 115.601562 37.738281 115.988281 37.996094 116.324219 38.335938 Z M 116.324219 38.335938 "/><g clip-rule="nonzero" clip-path="url(#7c65c3a981)"><path style=" stroke:none;fill-rule:nonzero;fill:#004d6c;fill-opacity:1;" d="M 75.988281 94.085938 L 45.296875 94.085938 C 45.132812 94.085938 44.980469 94.054688 44.832031 93.992188 C 44.683594 93.929688 44.550781 93.84375 44.4375 93.730469 C 44.324219 93.617188 44.234375 93.484375 44.175781 93.335938 C 44.113281 93.1875 44.082031 93.03125 44.082031 92.867188 C 44.082031 92.753906 44.097656 92.640625 44.132812 92.53125 L 59.382812 17.453125 C 59.441406 17.171875 59.582031 16.9375 59.804688 16.753906 C 60.03125 16.574219 60.289062 16.484375 60.578125 16.484375 C 60.867188 16.488281 61.121094 16.582031 61.34375 16.769531 C 61.5625 16.953125 61.699219 17.191406 61.753906 17.476562 L 77.171875 92.628906 C 77.203125 92.785156 77.203125 92.941406 77.175781 93.101562 C 77.144531 93.257812 77.082031 93.402344 76.996094 93.535156 C 76.90625 93.671875 76.796875 93.78125 76.664062 93.871094 C 76.53125 93.960938 76.386719 94.023438 76.230469 94.054688 C 76.152344 94.074219 76.070312 94.082031 75.988281 94.078125 Z M 46.773438 91.652344 L 74.507812 91.652344 L 60.570312 23.734375 Z M 46.773438 91.652344 "/></g><g clip-rule="nonzero" clip-path="url(#cbaa5abb67)"><path style=" stroke:none;fill-rule:nonzero;fill:#0076a4;fill-opacity:1;" d="M 47.238281 5.605469 C 47.347656 5.484375 47.472656 5.390625 47.617188 5.324219 C 47.761719 5.253906 47.914062 5.214844 48.074219 5.207031 C 48.234375 5.199219 48.390625 5.222656 48.542969 5.273438 C 48.691406 5.328125 48.828125 5.410156 48.945312 5.515625 C 49.066406 5.625 49.160156 5.75 49.230469 5.894531 C 49.296875 6.042969 49.335938 6.195312 49.34375 6.355469 C 49.351562 6.515625 49.332031 6.671875 49.277344 6.824219 C 49.222656 6.972656 49.144531 7.109375 49.035156 7.230469 C 48.394531 7.941406 47.824219 8.707031 47.324219 9.523438 C 46.824219 10.339844 46.402344 11.195312 46.0625 12.089844 C 45.71875 12.984375 45.460938 13.902344 45.285156 14.84375 C 45.109375 15.789062 45.023438 16.738281 45.023438 17.695312 C 45.023438 18.65625 45.109375 19.605469 45.285156 20.546875 C 45.460938 21.488281 45.71875 22.40625 46.0625 23.300781 C 46.402344 24.195312 46.824219 25.054688 47.324219 25.871094 C 47.824219 26.6875 48.394531 27.449219 49.035156 28.164062 C 49.144531 28.28125 49.222656 28.417969 49.277344 28.570312 C 49.332031 28.722656 49.351562 28.875 49.34375 29.039062 C 49.335938 29.199219 49.296875 29.351562 49.230469 29.496094 C 49.160156 29.640625 49.066406 29.765625 48.945312 29.875 C 48.828125 29.984375 48.691406 30.0625 48.542969 30.117188 C 48.390625 30.171875 48.234375 30.195312 48.074219 30.183594 C 47.914062 30.175781 47.761719 30.136719 47.617188 30.070312 C 47.472656 30 47.347656 29.90625 47.238281 29.785156 C 46.5 28.964844 45.839844 28.082031 45.261719 27.136719 C 44.683594 26.195312 44.195312 25.207031 43.800781 24.171875 C 43.402344 23.140625 43.105469 22.078125 42.902344 20.988281 C 42.703125 19.902344 42.601562 18.804688 42.601562 17.695312 C 42.601562 16.589844 42.703125 15.492188 42.902344 14.402344 C 43.105469 13.3125 43.402344 12.253906 43.800781 11.21875 C 44.195312 10.1875 44.683594 9.199219 45.261719 8.253906 C 45.839844 7.308594 46.5 6.425781 47.238281 5.605469 Z M 50.871094 8.882812 C 50.980469 8.769531 51.105469 8.683594 51.25 8.621094 C 51.394531 8.554688 51.542969 8.523438 51.699219 8.515625 C 51.855469 8.511719 52.007812 8.535156 52.15625 8.589844 C 52.300781 8.644531 52.433594 8.722656 52.550781 8.828125 C 52.664062 8.933594 52.757812 9.054688 52.828125 9.195312 C 52.894531 9.335938 52.9375 9.484375 52.949219 9.640625 C 52.960938 9.800781 52.941406 9.953125 52.894531 10.101562 C 52.847656 10.25 52.773438 10.386719 52.671875 10.507812 C 52.234375 10.996094 51.839844 11.519531 51.5 12.082031 C 51.15625 12.644531 50.867188 13.230469 50.632812 13.84375 C 50.394531 14.460938 50.21875 15.089844 50.097656 15.738281 C 49.980469 16.386719 49.917969 17.039062 49.917969 17.695312 C 49.917969 18.355469 49.980469 19.007812 50.097656 19.652344 C 50.21875 20.300781 50.394531 20.933594 50.632812 21.546875 C 50.867188 22.160156 51.15625 22.75 51.5 23.308594 C 51.839844 23.871094 52.234375 24.394531 52.671875 24.886719 C 52.78125 25.003906 52.867188 25.140625 52.921875 25.292969 C 52.976562 25.445312 53.003906 25.605469 52.996094 25.765625 C 52.988281 25.929688 52.949219 26.082031 52.878906 26.230469 C 52.808594 26.378906 52.714844 26.503906 52.59375 26.613281 C 52.472656 26.722656 52.335938 26.804688 52.183594 26.855469 C 52.03125 26.910156 51.871094 26.933594 51.710938 26.921875 C 51.546875 26.910156 51.394531 26.871094 51.25 26.796875 C 51.101562 26.726562 50.976562 26.628906 50.871094 26.503906 C 50.332031 25.90625 49.855469 25.261719 49.433594 24.574219 C 49.011719 23.886719 48.660156 23.164062 48.371094 22.414062 C 48.082031 21.660156 47.863281 20.886719 47.71875 20.09375 C 47.570312 19.300781 47.5 18.5 47.5 17.695312 C 47.5 16.886719 47.570312 16.085938 47.71875 15.292969 C 47.863281 14.5 48.082031 13.726562 48.371094 12.976562 C 48.660156 12.222656 49.011719 11.5 49.433594 10.8125 C 49.855469 10.125 50.332031 9.480469 50.871094 8.882812 Z M 68.613281 10.507812 C 68.503906 10.386719 68.425781 10.25 68.371094 10.101562 C 68.320312 9.949219 68.296875 9.792969 68.304688 9.632812 C 68.3125 9.472656 68.351562 9.320312 68.421875 9.175781 C 68.492188 9.03125 68.585938 8.90625 68.703125 8.796875 C 68.824219 8.691406 68.957031 8.609375 69.109375 8.554688 C 69.257812 8.503906 69.414062 8.480469 69.574219 8.488281 C 69.734375 8.496094 69.886719 8.535156 70.03125 8.601562 C 70.175781 8.671875 70.300781 8.765625 70.40625 8.882812 C 70.949219 9.480469 71.429688 10.125 71.847656 10.8125 C 72.269531 11.5 72.625 12.21875 72.914062 12.972656 C 73.203125 13.726562 73.421875 14.5 73.570312 15.292969 C 73.714844 16.085938 73.789062 16.886719 73.789062 17.695312 C 73.789062 18.5 73.714844 19.300781 73.570312 20.09375 C 73.421875 20.886719 73.203125 21.660156 72.914062 22.414062 C 72.625 23.167969 72.269531 23.886719 71.847656 24.574219 C 71.429688 25.261719 70.949219 25.90625 70.40625 26.503906 C 70.300781 26.625 70.175781 26.722656 70.03125 26.792969 C 69.886719 26.863281 69.734375 26.90625 69.570312 26.914062 C 69.410156 26.921875 69.253906 26.902344 69.101562 26.847656 C 68.949219 26.792969 68.8125 26.714844 68.691406 26.605469 C 68.574219 26.496094 68.476562 26.371094 68.410156 26.222656 C 68.339844 26.078125 68.300781 25.925781 68.292969 25.761719 C 68.285156 25.601562 68.308594 25.445312 68.363281 25.292969 C 68.421875 25.140625 68.503906 25.003906 68.613281 24.886719 C 69.050781 24.398438 69.441406 23.871094 69.785156 23.308594 C 70.128906 22.75 70.417969 22.160156 70.652344 21.546875 C 70.890625 20.933594 71.066406 20.300781 71.1875 19.65625 C 71.308594 19.007812 71.367188 18.355469 71.367188 17.695312 C 71.367188 17.039062 71.308594 16.386719 71.1875 15.738281 C 71.066406 15.089844 70.890625 14.460938 70.652344 13.84375 C 70.417969 13.230469 70.128906 12.644531 69.785156 12.082031 C 69.441406 11.519531 69.050781 10.996094 68.613281 10.507812 Z M 72.242188 7.230469 C 72.144531 7.109375 72.070312 6.972656 72.023438 6.824219 C 71.976562 6.675781 71.957031 6.519531 71.96875 6.363281 C 71.980469 6.207031 72.019531 6.058594 72.089844 5.917969 C 72.15625 5.777344 72.25 5.65625 72.367188 5.550781 C 72.484375 5.445312 72.613281 5.367188 72.761719 5.3125 C 72.910156 5.257812 73.058594 5.234375 73.214844 5.238281 C 73.375 5.246094 73.523438 5.277344 73.667969 5.34375 C 73.808594 5.40625 73.933594 5.492188 74.042969 5.605469 C 74.785156 6.425781 75.441406 7.3125 76.019531 8.253906 C 76.597656 9.199219 77.082031 10.1875 77.480469 11.21875 C 77.875 12.253906 78.171875 13.3125 78.375 14.402344 C 78.574219 15.492188 78.675781 16.589844 78.675781 17.695312 C 78.675781 18.804688 78.574219 19.902344 78.375 20.988281 C 78.171875 22.078125 77.875 23.136719 77.480469 24.171875 C 77.082031 25.207031 76.597656 26.195312 76.019531 27.136719 C 75.441406 28.082031 74.785156 28.964844 74.042969 29.785156 C 73.933594 29.898438 73.808594 29.988281 73.667969 30.050781 C 73.523438 30.113281 73.375 30.148438 73.214844 30.152344 C 73.058594 30.15625 72.910156 30.132812 72.761719 30.078125 C 72.613281 30.027344 72.484375 29.945312 72.367188 29.839844 C 72.25 29.738281 72.15625 29.613281 72.089844 29.472656 C 72.019531 29.332031 71.980469 29.183594 71.96875 29.027344 C 71.957031 28.871094 71.976562 28.71875 72.023438 28.566406 C 72.070312 28.417969 72.144531 28.285156 72.242188 28.164062 C 73.207031 27.089844 74.003906 25.90625 74.640625 24.613281 C 75.277344 23.320312 75.726562 21.964844 75.988281 20.546875 C 76.25 19.128906 76.316406 17.703125 76.183594 16.265625 C 76.054688 14.828125 75.730469 13.4375 75.21875 12.089844 C 74.53125 10.285156 73.539062 8.664062 72.242188 7.230469 Z M 72.242188 7.230469 "/></g><path style=" stroke:none;fill-rule:evenodd;fill:#f54756;fill-opacity:1;" d="M 60.640625 22.753906 C 60.972656 22.753906 61.300781 22.722656 61.625 22.65625 C 61.949219 22.59375 62.265625 22.496094 62.570312 22.371094 C 62.875 22.242188 63.167969 22.085938 63.441406 21.902344 C 63.71875 21.71875 63.972656 21.507812 64.207031 21.273438 C 64.441406 21.039062 64.652344 20.785156 64.835938 20.507812 C 65.019531 20.230469 65.175781 19.9375 65.300781 19.632812 C 65.429688 19.324219 65.523438 19.007812 65.589844 18.683594 C 65.652344 18.359375 65.6875 18.027344 65.6875 17.695312 C 65.6875 17.363281 65.652344 17.035156 65.589844 16.710938 C 65.523438 16.382812 65.429688 16.066406 65.300781 15.761719 C 65.175781 15.453125 65.019531 15.164062 64.835938 14.886719 C 64.652344 14.609375 64.441406 14.355469 64.207031 14.121094 C 63.972656 13.882812 63.71875 13.675781 63.445312 13.492188 C 63.167969 13.304688 62.878906 13.148438 62.570312 13.023438 C 62.265625 12.894531 61.949219 12.800781 61.625 12.734375 C 61.300781 12.671875 60.972656 12.636719 60.640625 12.636719 C 60.308594 12.636719 59.980469 12.667969 59.65625 12.734375 C 59.332031 12.800781 59.015625 12.894531 58.710938 13.023438 C 58.402344 13.148438 58.113281 13.304688 57.835938 13.488281 C 57.5625 13.675781 57.304688 13.882812 57.070312 14.117188 C 56.835938 14.355469 56.628906 14.609375 56.445312 14.886719 C 56.261719 15.160156 56.105469 15.453125 55.976562 15.761719 C 55.851562 16.066406 55.753906 16.382812 55.691406 16.710938 C 55.625 17.035156 55.59375 17.363281 55.59375 17.695312 C 55.59375 18.027344 55.628906 18.355469 55.691406 18.683594 C 55.757812 19.007812 55.855469 19.324219 55.980469 19.628906 C 56.109375 19.9375 56.261719 20.226562 56.449219 20.503906 C 56.632812 20.78125 56.839844 21.035156 57.074219 21.269531 C 57.308594 21.503906 57.5625 21.714844 57.839844 21.898438 C 58.113281 22.082031 58.40625 22.238281 58.710938 22.367188 C 59.015625 22.496094 59.332031 22.589844 59.65625 22.65625 C 59.980469 22.722656 60.308594 22.753906 60.640625 22.753906 Z M 60.640625 22.753906 "/><g clip-rule="nonzero" clip-path="url(#09ec4a00ca)"><path style=" stroke:none;fill-rule:nonzero;fill:#004561;fill-opacity:1;" d="M 40.519531 94.085938 C 40.359375 94.085938 40.203125 94.054688 40.054688 93.992188 C 39.90625 93.929688 39.777344 93.84375 39.660156 93.726562 C 39.546875 93.613281 39.460938 93.484375 39.398438 93.335938 C 39.335938 93.183594 39.308594 93.03125 39.308594 92.867188 C 39.308594 92.707031 39.335938 92.554688 39.398438 92.402344 C 39.460938 92.253906 39.546875 92.125 39.660156 92.011719 C 39.777344 91.894531 39.90625 91.808594 40.054688 91.746094 C 40.203125 91.683594 40.359375 91.652344 40.519531 91.652344 L 108.117188 91.652344 C 108.277344 91.652344 108.433594 91.683594 108.582031 91.746094 C 108.730469 91.808594 108.859375 91.894531 108.972656 92.011719 C 109.085938 92.125 109.175781 92.253906 109.238281 92.402344 C 109.296875 92.554688 109.328125 92.707031 109.328125 92.867188 C 109.328125 93.03125 109.296875 93.183594 109.238281 93.335938 C 109.175781 93.484375 109.085938 93.613281 108.972656 93.726562 C 108.859375 93.84375 108.730469 93.929688 108.582031 93.992188 C 108.433594 94.054688 108.277344 94.085938 108.117188 94.085938 Z M 40.519531 94.085938 "/></g><path style=" stroke:none;fill-rule:evenodd;fill:#dd404d;fill-opacity:1;" d="M 57.121094 17.695312 C 57.121094 17.089844 57.226562 16.503906 57.433594 15.9375 C 57.644531 15.371094 57.945312 14.859375 58.339844 14.398438 C 58.730469 13.941406 59.191406 13.5625 59.71875 13.269531 C 60.246094 12.976562 60.808594 12.785156 61.40625 12.691406 C 61.152344 12.65625 60.894531 12.636719 60.640625 12.636719 C 60.308594 12.640625 59.984375 12.671875 59.660156 12.738281 C 59.335938 12.804688 59.023438 12.902344 58.71875 13.03125 C 58.414062 13.160156 58.125 13.316406 57.851562 13.5 C 57.578125 13.683594 57.324219 13.894531 57.089844 14.128906 C 56.859375 14.363281 56.648438 14.621094 56.46875 14.894531 C 56.285156 15.171875 56.128906 15.460938 56.003906 15.765625 C 55.878906 16.074219 55.785156 16.386719 55.71875 16.710938 C 55.65625 17.039062 55.625 17.363281 55.625 17.695312 C 55.625 18.027344 55.65625 18.355469 55.71875 18.679688 C 55.785156 19.003906 55.878906 19.320312 56.003906 19.625 C 56.128906 19.929688 56.285156 20.222656 56.46875 20.496094 C 56.648438 20.773438 56.859375 21.027344 57.089844 21.261719 C 57.324219 21.496094 57.578125 21.707031 57.851562 21.890625 C 58.125 22.078125 58.414062 22.234375 58.71875 22.359375 C 59.023438 22.488281 59.335938 22.585938 59.660156 22.652344 C 59.984375 22.71875 60.308594 22.753906 60.640625 22.753906 C 60.894531 22.753906 61.152344 22.734375 61.40625 22.695312 C 60.808594 22.605469 60.246094 22.414062 59.71875 22.121094 C 59.191406 21.828125 58.730469 21.453125 58.339844 20.992188 C 57.945312 20.535156 57.644531 20.019531 57.433594 19.453125 C 57.222656 18.886719 57.121094 18.300781 57.121094 17.695312 Z M 57.121094 17.695312 "/><path style=" stroke:none;fill-rule:evenodd;fill:#dd404d;fill-opacity:1;" d="M 111.5 40.402344 C 111.550781 40.023438 111.65625 39.664062 111.820312 39.320312 C 111.984375 38.976562 112.199219 38.667969 112.460938 38.394531 C 112.722656 38.117188 113.023438 37.890625 113.355469 37.710938 C 113.691406 37.53125 114.046875 37.40625 114.417969 37.339844 C 114.058594 37.277344 113.699219 37.265625 113.335938 37.3125 C 112.972656 37.359375 112.625 37.460938 112.289062 37.613281 C 111.957031 37.765625 111.65625 37.964844 111.382812 38.210938 C 111.113281 38.457031 110.882812 38.738281 110.699219 39.054688 C 110.511719 39.371094 110.378906 39.707031 110.296875 40.0625 C 110.210938 40.421875 110.183594 40.785156 110.210938 41.148438 C 110.242188 41.515625 110.320312 41.867188 110.457031 42.210938 C 110.59375 42.550781 110.777344 42.863281 111.007812 43.148438 C 111.164062 43.335938 111.335938 43.507812 111.523438 43.664062 C 112.1875 44.207031 112.949219 44.476562 113.804688 44.472656 C 114.011719 44.46875 114.214844 44.453125 114.417969 44.417969 C 114.238281 44.382812 114.054688 44.332031 113.878906 44.273438 C 113.488281 44.136719 113.132812 43.941406 112.8125 43.679688 C 112.488281 43.421875 112.21875 43.113281 112.003906 42.761719 C 111.785156 42.410156 111.632812 42.03125 111.546875 41.625 C 111.460938 41.21875 111.445312 40.8125 111.5 40.402344 Z M 111.5 40.402344 "/><path style=" stroke:none;fill-rule:evenodd;fill:#004561;fill-opacity:1;" d="M 83.226562 91.652344 L 89.519531 68.863281 C 88.839844 68.328125 88.199219 67.753906 87.589844 67.144531 L 80.820312 91.652344 Z M 83.226562 91.652344 "/><path style=" stroke:none;fill-rule:evenodd;fill:#006a94;fill-opacity:1;" d="M 90.964844 67.144531 C 90.105469 66.28125 89.324219 65.355469 88.621094 64.363281 C 87.914062 63.375 87.296875 62.332031 86.761719 61.238281 C 86.230469 60.140625 85.789062 59.011719 85.445312 57.84375 C 85.097656 56.675781 84.851562 55.488281 84.703125 54.28125 C 84.554688 53.074219 84.507812 51.859375 84.558594 50.644531 C 84.609375 49.425781 84.761719 48.222656 85.011719 47.03125 C 85.265625 45.839844 85.613281 44.679688 86.054688 43.546875 C 86.5 42.414062 87.03125 41.324219 87.65625 40.277344 C 86.902344 38.300781 86.828125 36.804688 87.589844 36.042969 C 87.042969 36.589844 86.527344 37.164062 86.042969 37.769531 C 85.558594 38.371094 85.105469 38.996094 84.6875 39.648438 C 84.265625 40.296875 83.882812 40.96875 83.535156 41.660156 C 83.1875 42.347656 82.875 43.058594 82.601562 43.78125 C 82.328125 44.503906 82.089844 45.242188 81.894531 45.988281 C 81.699219 46.738281 81.542969 47.496094 81.425781 48.261719 C 81.308594 49.027344 81.230469 49.792969 81.195312 50.566406 C 81.160156 51.339844 81.164062 52.113281 81.210938 52.886719 C 81.253906 53.660156 81.339844 54.429688 81.46875 55.191406 C 81.59375 55.957031 81.761719 56.710938 81.964844 57.457031 C 82.171875 58.203125 82.414062 58.9375 82.699219 59.65625 C 82.980469 60.378906 83.300781 61.082031 83.660156 61.765625 C 84.015625 62.453125 84.40625 63.121094 84.835938 63.765625 C 85.261719 64.410156 85.722656 65.03125 86.214844 65.625 C 86.707031 66.222656 87.226562 66.792969 87.78125 67.332031 C 88.332031 67.875 88.910156 68.386719 89.515625 68.863281 C 90.839844 69.914062 92.265625 70.796875 93.792969 71.511719 C 97.28125 73.148438 100.945312 73.820312 104.789062 73.519531 C 102.175781 73.324219 99.683594 72.675781 97.304688 71.578125 C 94.925781 70.480469 92.8125 69.003906 90.964844 67.144531 Z M 90.964844 67.144531 "/><path style=" stroke:none;fill-rule:evenodd;fill:#004561;fill-opacity:1;" d="M 117.09375 65.625 C 113.207031 64.386719 107.0625 60.054688 101.023438 53.996094 C 94.984375 47.945312 90.660156 41.785156 89.425781 37.886719 C 89.128906 36.953125 89.011719 36.148438 89.089844 35.511719 C 88.449219 35.515625 87.9375 35.691406 87.589844 36.042969 C 86.828125 36.804688 86.902344 38.300781 87.65625 40.277344 C 89.15625 44.191406 93.324219 49.988281 99.011719 55.691406 C 107.578125 64.277344 116.351562 69.40625 118.613281 67.144531 C 118.917969 66.816406 119.085938 66.429688 119.121094 65.984375 C 118.425781 65.976562 117.75 65.855469 117.09375 65.625 Z M 117.09375 65.625 "/></g></svg>